# xmcd
#
# Track frame offsets:
# 150
# 12634
# 28392
# 43482
# 56956
# 67797
# 83040
# 99106
# 113081
# 127097
# 138453
# 155702
#
# Disc length: 2288 seconds
#
#
# Revision: 0
# Processed by: cddbd v1.5.2PL0 Copyright (c) Steve Scherf et al.
# Submitted via: FreeRIP 2.95 
#
DISCID=ac08ee0c
DTITLE=Greg McDougal - The Work Of A Carpenter
DYEAR=2005
DGENRE=Country
TTITLE0=He Sent You
TTITLE1=Loving You
TTITLE2=What The Lord Gave Me To Do
TTITLE3=Serpent In The Garden
TTITLE4=Livin' By The Book
TTITLE5=The Work Of A Carpenter
TTITLE6=Broken Down
TTITLE7=Dust On The Bible
TTITLE8=I Want To See Jesus
TTITLE9=I've Got More To Go To Heaven For
TTITLE10=Even When I Fall
TTITLE11=Grace
EXTD=
EXTT0=
EXTT1=
EXTT2=
EXTT3=
EXTT4=
EXTT5=
EXTT6=
EXTT7=
EXTT8=
EXTT9=
EXTT10=
EXTT11=
PLAYORDER=
